<svg xmlns="http://www.w3.org/2000/svg" width="200" height="200" class="icon" viewBox="0 0 1024 1024"><path fill="#2c2c2c" d="M563 917.93c-112.2-32.64-375.33-138.71-375.33-432.45V99.95h18.35c2.04 0 230.5-2.04 350.86-91.8L569.12 0l12.23 8.16c118.32 89.75 346.78 91.8 350.86 91.8h18.36v385.52C948.53 779.22 687.43 885.3 573.2 917.93l-6.12 2.04-4.08-2.04zM226.42 485.48c0 265.18 236.62 363.1 342.7 393.7 106.07-30.6 342.69-130.56 342.69-393.7V138.71c-63.24-2.04-232.54-16.32-342.7-89.75-110.15 73.43-279.45 85.67-342.69 89.75v346.77z"/><path fill="#2c2c2c" d="M569.12 907.73h-2.04C456.92 877.13 199.9 773.1 199.9 485.48V110.15h8.16c2.04 0 234.59-2.04 356.98-93.83l6.12-4.08 2.04 4.08c122.39 91.8 352.89 93.83 356.97 93.83h8.16v375.33c0 287.62-257.02 391.65-367.17 422.25h-2.04zM216.22 128.5v356.97c0 273.34 244.78 373.3 352.9 405.93C677.22 860.81 922 758.82 922 485.48V128.51c-44.88 0-236.62-10.2-352.9-93.83-116.27 83.63-310.05 91.79-352.89 93.83zm0 0"/><path fill="#2c2c2c" d="M569.12 828.18V469.16h289.65v14.28c-2.04 222.34-212.14 318.22-289.65 344.74zm0 0"/><path fill="#2c2c2c" d="M548.72 450.8h326.37v32.64c0 250.9-250.9 346.78-301.9 363.1l-24.47 8.15V450.8zm38.75 350.86c73.44-28.56 248.86-120.35 250.9-312.1h-250.9v312.1z"/><path fill="#2c2c2c" d="M558.92 840.41v-379.4h305.97v22.43c0 242.74-246.82 336.58-295.77 352.9l-10.2 4.07zm18.35-363.09v338.62c65.28-24.48 271.3-116.27 271.3-332.5v-6.12h-271.3zm0 0"/><path fill="#2c2c2c" d="M279.46 195.82s175.42-14.27 289.66-85.67v359.01H279.46V195.82zm0 0"/><path fill="#2c2c2c" d="M261.1 487.52V177.47l18.36-2.04c2.04 0 171.34-14.28 279.46-83.64l28.55-18.36v412.05H261.1zm287.62-36.72V142.8c-91.8 48.96-206.03 65.27-250.9 71.4V450.8h250.9z"/><path fill="#2c2c2c" d="M577.27 477.32H271.3V187.67h8.16c2.04 0 173.38-14.28 285.58-85.68l14.27-8.16-2.04 383.5zM287.62 461h271.3V124.43c-102 59.16-236.63 75.47-271.3 79.55V461zm0 0"/></svg>