<svg xmlns="http://www.w3.org/2000/svg" width="214.26" height="200" class="icon" viewBox="0 0 1097 1024"><path fill="#FFE41F" d="M1097.13 448.36c0 12.14 0 21.2-5.67 33.31L967.05 905.6c-31.09 105.98-96.15 139.3-192.26 105.98l-226.22-78.73c8.48-6.04 333.67-357.3 333.67-357.3 36.75-39.35 36.75-105.98 36.75-108.98l19.79-411.82c0-6.07 0-12.1-2.82-18.18l147.01 339.12c-2.81 0 14.16 36.35 14.16 72.7z"/><path fill="#2674FD" d="M911.46 41.29s-8.52-26.55-31.2-35.44C871.86 2.96 863.33 0 857.66 0L450.2 20.63c-28.3 2.92-50.94 14.73-70.76 35.4L68.17 383.23c-76.43 82.54-96.21 141.52-19.82 221.1l268.83 285.95c70.77 73.69 138.68 79.58 209.4 20.63 8.5-5.9 333.9-347.87 333.9-347.87 36.83-38.32 36.83-103.16 36.83-106.12l16.97-397.97c0-5.89 0-11.77-2.82-17.7zM679.42 168.04c48.09 2.93 84.84 50.1 79.2 100.2-2.8 50.1-48.08 88.47-96.17 82.58-48.13-5.92-84.92-50.1-82.1-100.24 8.48-50.1 50.94-88.43 99.07-82.54z"/></svg>