<svg xmlns="http://www.w3.org/2000/svg" width="200" height="200" class="icon" viewBox="0 0 1024 1024"><path fill="#C7C7C7" d="M711.64 340.2c0 1.15.44 2.3 1.33 3.1.8.8 1.95 1.33 3.1 1.33h3.55a4.4 4.4 0 0 0 4.44-4.44V251.1a4.4 4.4 0 0 0-4.44-4.43h-3.55c-1.15 0-2.3.44-3.1 1.33s-1.33 1.95-1.33 3.1v89.1zm0 79.23c0 1.16.44 2.31 1.33 3.1.8.8 1.95 1.34 3.1 1.34h3.55a4.4 4.4 0 0 0 4.44-4.44v-41.26a4.4 4.4 0 0 0-4.44-4.44h-3.55c-1.15 0-2.3.45-3.1 1.34-.8.8-1.33 1.95-1.33 3.1v41.26z"/><path fill="#B6B6B6" d="M719.62 425.2h-3.55c-1.5 0-3.01-.62-4.08-1.69a5.85 5.85 0 0 1-1.69-4.08v-41.26c0-1.5.63-3.02 1.7-4.08a5.85 5.85 0 0 1 4.07-1.69h3.55c3.2 0 5.77 2.58 5.77 5.77v41.26c0 3.2-2.57 5.77-5.77 5.77zm-3.55-50.13c-.8 0-1.6.35-2.22.88a2.94 2.94 0 0 0-.88 2.22v41.26c0 .8.35 1.6.88 2.22.63.62 1.34.89 2.22.89h3.55c1.69 0 3.1-1.42 3.1-3.1v-41.27c0-1.68-1.41-3.1-3.1-3.1h-3.55zm3.55-29.11h-3.55c-1.5 0-3.01-.62-4.08-1.69a5.85 5.85 0 0 1-1.69-4.08V251.1c0-1.5.63-3.01 1.7-4.08a5.85 5.85 0 0 1 4.07-1.69h3.55c3.2 0 5.77 2.58 5.77 5.77v89.1c0 3.19-2.57 5.76-5.77 5.76zM716.07 248c-.8 0-1.6.35-2.22.88a2.94 2.94 0 0 0-.88 2.22v89.1c0 .8.35 1.59.88 2.21.63.62 1.34.89 2.22.89h3.55c1.69 0 3.1-1.42 3.1-3.1v-89.1c0-1.68-1.41-3.1-3.1-3.1h-3.55z"/><path fill="#CDCDCD" d="M303.72 921.94c0 11.8 4.7 23.07 12.96 31.41a44.31 44.31 0 0 0 31.4 12.96h327.8a44.38 44.38 0 0 0 44.36-44.37V102.03c0-11.8-4.7-23.07-12.95-31.41s-19.61-12.96-31.41-12.96h-327.8a44.4 44.4 0 0 0-44.36 44.37v819.9z"/><path fill="#3A3A3A" d="M303.72 916.88c0 11.8 4.7 23.07 12.96 31.41a44.31 44.31 0 0 0 31.4 12.96h327.8a44.38 44.38 0 0 0 44.36-44.37v-809.8c0-11.8-4.7-23.06-12.95-31.4s-19.61-12.96-31.41-12.96h-327.8c-11.8 0-23.06 4.7-31.4 12.95s-12.96 19.61-12.96 31.42v809.79z"/><path fill="#BAB3A3" d="M310.02 905.97c0 11.8 4.7 23.07 12.96 31.4a44.31 44.31 0 0 0 31.4 12.96h315.28a44.38 44.38 0 0 0 44.37-44.36V118c0-11.8-4.7-23.07-12.95-31.41a44.31 44.31 0 0 0-31.42-12.96H354.4c-11.8 0-23.07 4.7-31.41 12.96s-12.96 19.7-12.96 31.41v787.97z"/><path fill="#F0C265" d="M311.89 611.01a65.3 65.3 0 0 0 33.8 60.87c22.28 10.65 55.02 21.39 96.64 21.39 82.7 0 123.34-29.73 136.82-62.56 13.5-32.92 23.34-169.75 0-199.48s-67.52-36.2-126.09-36.29c-22.36-.09-68.94-1.6-95.3 3.9-38.51 8.08-45.87 32.4-45.87 32.4V611z" opacity=".9"/><path fill="#8F7A55" d="M715.9 842.88V333.7s-86.26 30.8-103.74 119.89c-17.39 89.09-19.96 175.07 0 282.17 19.97 107.1 103.73 107.1 103.73 107.1z" opacity=".8"/><path fill="#D6C9B4" d="M715.9 332.12V118.09c0-11.8-4.7-23.07-12.96-31.41a44.31 44.31 0 0 0-31.41-12.96H356.25c-11.8 0-23.07 4.7-31.41 12.96s-12.95 19.6-12.95 31.32v253.34s92.72 29.28 185.18 22.27c92.47-7 218.82-61.5 218.82-61.5z" opacity=".9"/><path fill="#A8A8A8" d="M425.82 62.72h2.4v-5.06h-2.4v5.06zm169.93 0h2.4v-5.06h-2.4v5.06zM445.7 966.3h2.4v-4.44h-2.4v4.44zm130.08 0h2.4v-4.44h-2.4v4.44z"/><path fill="#11131C" d="M512 83.5a13.3 13.3 0 1 0 0 26.62c7.36 0 13.31-5.95 13.31-13.32S519.36 83.5 512 83.5z"/><path fill="#252320" d="M512 112.33c-8.52 0-15.53-7-15.53-15.53s7.01-15.53 15.53-15.53 15.53 7.01 15.53 15.53-7.01 15.53-15.53 15.53zm0-26.62a11.1 11.1 0 1 0 0 22.2 11.1 11.1 0 0 0 0-22.2z"/><path fill="#535A9A" d="M506.94 92.37c0-.71.53-1.25 1.24-1.25s1.34.54 1.34 1.25-.63 1.24-1.34 1.24c-.62 0-1.24-.53-1.24-1.24zm3.9 7.1c0-1.69 1.43-3.11 3.11-3.11s3.1 1.33 3.1 3.1c0 1.7-1.41 3.11-3.1 3.11s-3.1-1.42-3.1-3.1z"/><path fill="#F6F7F8" d="M310.73 82.15a44.4 44.4 0 0 0-7 23.87v811.93c0 8.51 2.48 16.77 7 23.78V82.15z" opacity=".5"/><path fill="#F6F7F8" d="M321.47 70.7a43.3 43.3 0 0 0-4.88 4.18 44.13 44.13 0 0 0-12.87 31.14v811.93c0 11.62 4.62 22.8 12.87 31.05a43.3 43.3 0 0 0 4.88 4.17V70.71z" opacity=".4"/><path fill="#F6F7F8" d="M713.2 941.8V82.21a43.87 43.87 0 0 1 7.02 23.78V918a43.5 43.5 0 0 1-7.01 23.78z" opacity=".5"/><path fill="#F6F7F8" d="M702.47 953.24V70.68a43.3 43.3 0 0 1 4.88 4.17 43.93 43.93 0 0 1 12.87 31.06v812.01a43.86 43.86 0 0 1-17.75 35.32z" opacity=".4"/></svg>