<svg xmlns="http://www.w3.org/2000/svg" width="200" height="200" class="icon" viewBox="0 0 1024 1024"><path fill="#443A57" d="M319.07 290.07a8.78 8.78 0 0 1 6.3-2.57h6.21c4.88 0 8.88 4 8.88 8.87v92.38c0 4.88-4 8.87-8.88 8.87h-6.2c-2.4 0-4.62-.98-6.3-2.57a8.78 8.78 0 0 1-2.58-6.3v-92.38c0-2.4.98-4.61 2.57-6.3zm8.88 275.17c-2.4 0-4.62.98-6.3 2.57s-2.58 3.9-2.58 6.3v35.5c0 2.4.98 4.61 2.58 6.3s3.9 2.57 6.3 2.57h6.2c2.4 0 4.62-.97 6.3-2.57a8.78 8.78 0 0 0 2.58-6.3v-35.5c0-2.4-.97-4.61-2.57-6.3a8.78 8.78 0 0 0-6.3-2.57h-6.21zm9.93 244.11a8.78 8.78 0 0 1-6.3 2.57h-6.2c-2.4 0-4.62-.97-6.3-2.57s-2.58-3.9-2.58-6.3v-35.5c0-2.39.98-4.6 2.57-6.3s3.9-2.57 6.3-2.57h6.21c2.4 0 4.62.98 6.3 2.58a8.78 8.78 0 0 1 2.58 6.3v35.49c0 2.4-.98 4.61-2.58 6.3z"/><path fill="#4C4062" d="M366.76 57.68c-11.8 0-23.07 4.7-31.42 12.95s-12.95 19.61-12.95 31.42v819.9c0 11.8 4.7 23.08 12.95 31.42s19.61 12.95 31.42 12.95h302.23a44.38 44.38 0 0 0 44.36-44.37v-819.9c0-11.8-4.7-23.08-12.95-31.42a44.69 44.69 0 0 0-31.41-12.95H366.76z"/><path fill="#3F394B" d="M376.34 70.28c-11.8 0-23.07 4.7-31.41 12.95s-12.96 19.61-12.96 31.42v794.8c0 11.8 4.7 23.06 12.96 31.4s19.6 12.96 31.41 12.96H659.4a44.38 44.38 0 0 0 44.37-44.37v-794.8c0-11.8-4.7-23.07-12.95-31.4a44.31 44.31 0 0 0-31.42-12.96H376.34z"/><path fill="#776D88" d="M659.4 958.16H376.34a48.46 48.46 0 0 1-34.52-14.29 48.46 48.46 0 0 1-14.28-34.52v-794.7a48.46 48.46 0 0 1 14.28-34.52 48.46 48.46 0 0 1 34.52-14.29H659.4a48.46 48.46 0 0 1 34.52 14.29 48.46 48.46 0 0 1 14.29 34.52v794.8a48.76 48.76 0 0 1-48.8 48.7zM376.34 74.7c-10.65 0-20.68 4.18-28.22 11.72s-11.71 17.57-11.71 28.22v794.8c0 10.64 4.17 20.67 11.71 28.21s17.57 11.71 28.22 11.71H659.4a40 40 0 0 0 39.93-39.93v-794.8c0-10.64-4.17-20.67-11.7-28.21S670.04 74.7 659.4 74.7H376.34z" opacity=".7"/><path fill="#84799B" d="M708.09 154.31v-4.53h5.32v4.53h-5.32zm-385.73 0v-4.53h5.59v4.53h-5.6zm385.73 185.63v-4.52h5.23v4.52h-5.23zM322.36 874.3v-4.52h5.59v4.52h-5.6zm385.28 0v-4.52h5.33v4.52h-5.33z"/><path fill="#D6C0A5" d="M380.28 86.61a7.63 7.63 0 1 0 0 15.26 7.63 7.63 0 0 0 0-15.26z"/><path fill="#C6A782" d="M380.28 102.85a8.62 8.62 0 1 1 .01-17.23 8.62 8.62 0 0 1-.01 17.23zm0-15.26a6.55 6.55 0 0 0-6.57 6.56 6.55 6.55 0 0 0 6.57 6.57 6.55 6.55 0 0 0 6.56-6.57 6.55 6.55 0 0 0-6.56-6.56z"/><path fill="#AAAAAC" d="M404.6 86.61a7.63 7.63 0 1 0 7.63 7.63 7.69 7.69 0 0 0-7.64-7.63z"/><path fill="#848486" d="M404.6 102.85a8.62 8.62 0 1 1 8.6-8.6c0 4.7-3.9 8.6-8.6 8.6zm0-15.26a6.55 6.55 0 0 0-6.58 6.56 6.55 6.55 0 0 0 6.57 6.57 6.55 6.55 0 0 0 6.57-6.57 6.6 6.6 0 0 0-6.57-6.56z"/><path d="M363.24 329.04c0 7.72 3.1 15.17 8.52 20.67s12.87 8.52 20.67 8.52c7.72 0 15.18-3.1 20.68-8.52s8.52-12.87 8.52-20.67V138.26c0-7.72-3.1-15.18-8.52-20.68s-12.87-8.52-20.68-8.52c-7.72 0-15.17 3.1-20.67 8.52s-8.52 12.96-8.52 20.76v190.7z"/><path fill="#484846" d="M392.43 360.45a31.07 31.07 0 0 1-22.18-9.23 31.22 31.22 0 0 1-9.23-22.18V138.26c0-8.43 3.29-16.24 9.23-22.19a31.22 31.22 0 0 1 22.18-9.23c8.43 0 16.24 3.29 22.19 9.23a31.22 31.22 0 0 1 9.23 22.19v190.78c0 8.43-3.29 16.23-9.23 22.18a30.86 30.86 0 0 1-22.19 9.23zm0-249.08a26.92 26.92 0 0 0-26.97 26.97v190.78a26.92 26.92 0 0 0 26.97 26.98 26.92 26.92 0 0 0 26.98-26.98V138.34a26.92 26.92 0 0 0-26.98-26.97z"/><path d="M392.42 132.34c-8.96 0-16.15 7.19-16.15 16.15s7.19 16.15 16.15 16.15 16.15-7.19 16.15-16.15-7.19-16.15-16.15-16.15z"/><path fill="#3C3C3C" d="M392.42 166.06c-9.67 0-17.57-7.9-17.57-17.57s7.9-17.57 17.57-17.57 17.57 7.9 17.57 17.57-7.9 17.57-17.57 17.57zm0-32.3c-8.08 0-14.73 6.65-14.73 14.73s6.57 14.73 14.73 14.73 14.73-6.57 14.73-14.73-6.57-14.73-14.73-14.73z"/><path fill="#3C433E" d="M392.42 141.4c-3.9 0-7.1 3.19-7.1 7.09s3.2 7.1 7.1 7.1 7.1-3.2 7.1-7.1-3.2-7.1-7.1-7.1z"/><path fill="#3C433E" d="M392.42 157.8a9.32 9.32 0 1 1 0-18.63 9.32 9.32 0 0 1 0 18.64zm0-14.2c-2.66 0-4.88 2.23-4.88 4.89s2.22 4.88 4.88 4.88 4.88-2.22 4.88-4.88-2.22-4.88-4.88-4.88z"/><path fill="#52752D" d="M388.7 148.13c.26.27.44-.08.8-.62.17-.35.43-.8.7-1.15.36-.35.71-.71.98-.89.44-.35.8-.62.44-.88-.53-.45-1.5.08-2.4 1.06-.8.98-1.06 2.13-.53 2.48zm7.1-1.06c-.54-.44-.72.09-.98.89a6.8 6.8 0 0 1-.9 2.04c-.52.62-1.23.97-1.86 1.15-.62.27-1.06.45-.53.89.98.8 2.75.35 3.9-.98 1.25-1.42 1.34-3.2.36-3.99z"/><path d="M392.4 198.16c-9.76 0-17.74 7.98-17.74 17.74s7.98 17.75 17.74 17.75 17.75-7.99 17.75-17.75-7.9-17.74-17.75-17.74z"/><path fill="#3C3C3C" d="M392.4 235.25a19.33 19.33 0 1 1 19.35-19.35c0 10.74-8.61 19.35-19.35 19.35zm0-35.5a16.2 16.2 0 0 0-16.15 16.15c0 8.96 7.28 16.24 16.15 16.24 8.97 0 16.15-7.28 16.15-16.15a16.11 16.11 0 0 0-16.15-16.24z"/><path fill="#3C433E" d="M392.4 206.5c-5.14 0-9.4 4.26-9.4 9.4s4.26 9.4 9.4 9.4a9.41 9.41 0 0 0 0-18.8z"/><path fill="#52752D" d="M386.01 215.9c.54.45.8-.09 1.25-.97.26-.54.62-1.25 1.15-1.87.53-.62 1.15-1.06 1.69-1.5.8-.63 1.33-.98.7-1.43-.88-.7-2.66-.08-3.99 1.51s-1.68 3.46-.8 4.26zm12.25-2.04c-1.07-.89-1.24.09-1.6 1.42a8.59 8.59 0 0 1-1.42 3.37c-.88 1.07-2.13 1.51-3.1 1.87-1.16.44-1.78.62-.8 1.5 1.86 1.51 4.88.98 6.74-1.33 1.95-2.21 2.04-5.32.18-6.83z"/><path d="M382.1 258.77a9.47 9.47 0 0 0-9.41 9.4 9.41 9.41 0 1 0 9.4-9.4z"/><path fill="#3C3C3C" d="M382.1 278.47a10.28 10.28 0 0 1 .08-20.59 10.3 10.3 0 0 1 10.3 10.3 10.43 10.43 0 0 1-10.39 10.29zm0-18.9c-4.7 0-8.61 3.9-8.61 8.6 0 4.7 3.9 8.61 8.6 8.61a8.62 8.62 0 0 0 0-17.21z"/><path fill="#3C433E" d="M382.1 263.2a4.96 4.96 0 1 0 4.96 4.98 4.85 4.85 0 0 0-4.97-4.97z"/><path fill="#52752D" d="M378.72 268.18c.27.26.45-.1.71-.54.18-.26.36-.7.62-.97.27-.36.62-.62.89-.8.36-.27.62-.45.36-.71-.45-.36-1.42 0-2.13.8s-.9 1.86-.45 2.22zm6.48-1.07c-.53-.44-.62 0-.8.71-.18.53-.27 1.33-.7 1.78-.45.53-1.16.8-1.6.97-.63.18-.98.36-.45.8.98.8 2.57.53 3.55-.71.98-1.06 1.06-2.75 0-3.55z"/><path fill="#484840" d="M397.58 275c0 .7.27 1.42.8 1.86.53.53 1.15.8 1.86.8h8.61c1.5 0 2.66-1.16 2.66-2.66v-12.78c0-.71-.26-1.42-.8-1.86s-1.15-.8-1.86-.8h-8.6c-.72 0-1.43.26-1.87.8-.53.53-.8 1.15-.8 1.86V275z"/><path d="M392.21 302.74a19.52 19.52 0 1 0 19.52 19.52 19.47 19.47 0 0 0-19.52-19.52z"/><path fill="#3C3C3C" d="M392.21 343.64a21.38 21.38 0 0 1-21.3-21.38c0-11.72 9.59-21.3 21.3-21.3s21.3 9.58 21.3 21.3a21.26 21.26 0 0 1-21.3 21.38zm0-39.13a17.8 17.8 0 0 0 0 35.58c9.85 0 17.84-7.98 17.84-17.83 0-9.76-8-17.75-17.84-17.75z"/><path fill="#3C433E" d="M392.21 311.96a10.34 10.34 0 1 0 0 20.68c5.68 0 10.38-4.61 10.38-10.38s-4.61-10.3-10.38-10.3z"/><path fill="#52752D" d="M385.2 322.26c.62.53.89-.1 1.42-1.07.35-.62.7-1.42 1.24-2.13a7.46 7.46 0 0 1 1.87-1.6c.88-.62 1.41-1.06.8-1.5-.98-.8-3.02-.1-4.44 1.68-1.51 1.69-1.87 3.82-.89 4.62zm13.49-2.22c-1.16-.98-1.42.09-1.78 1.6-.26 1.15-.62 2.66-1.6 3.72a7.21 7.21 0 0 1-3.37 2.04c-1.24.45-1.95.71-.88 1.69 2.04 1.69 5.32 1.06 7.45-1.42 2.13-2.57 2.22-5.94.18-7.63z"/><path fill="#3C3C3C" d="M402.77 338.76a19.5 19.5 0 0 0 9.05-16.5c0-6.92-3.64-13.05-9.05-16.5v33zm-21.03 0v-33a19.74 19.74 0 0 0-9.05 16.5 19.5 19.5 0 0 0 9.05 16.5z"/><path fill="#0C0B0D" d="M499.2 487.5c-7.72 0-12.95-6.56-12.95-16.4 0-10.83 4.97-17.66 12.95-17.66 7.9 0 12.78 6.74 12.78 17.65 0 10.03-4.97 16.42-12.78 16.42zm0-29.54c-7.9 0-8.51 10.12-8.51 13.22 0 7.37 3.28 11.98 8.51 11.98 6.13 0 8.35-6.21 8.35-11.98 0-4-.8-13.22-8.35-13.22zm64.7 29.28h-4.44v-15.53l-8.61-15.79 3.9-2.13 6.92 12.78 6.93-12.78 3.9 2.13-8.6 15.8v15.52zm-2.23-16.15zm-37.7 16.15h-4.45v-32.3h8.08l12.33 25.74v-25.83h4.44v32.22h-6.3l-13.31-27.69h-.8v27.86zm-58.48-.8c-3.29 0-5.95-.44-6.48-.53l.7-4.35c2.94.45 11.37 1.16 14.65-1.6a3.5 3.5 0 0 0 1.24-2.74c0-2.84-2.04-3.82-6.57-5.24-4.08-1.33-9.67-3.1-9.67-9.5 0-2.48.98-4.6 2.75-6.2 5.33-4.53 16.5-2.93 17.75-2.76l-.71 4.35c-2.84-.44-11-.97-14.2 1.78-.88.7-1.24 1.6-1.24 2.84 0 2.84 2.04 3.81 6.57 5.23 4.08 1.33 9.67 3.1 9.67 9.5 0 2.48-.98 4.61-2.75 6.12-2.93 2.57-7.72 3.1-11.71 3.1z"/><path fill="#76678F" d="M500.77 294.5c0 1.16.44 2.31 1.33 3.11.8.8 1.95 1.33 3.1 1.33h19.52a4.4 4.4 0 0 0 4.44-4.43v-18.73c0-1.15-.44-2.3-1.33-3.1s-1.95-1.33-3.1-1.33H505.2c-1.15 0-2.3.44-3.1 1.33s-1.33 1.95-1.33 3.1v18.73z" opacity=".7"/><path fill="#3F394B" d="m510.62 301.43-1.42-3.02a10.38 10.38 0 0 1-.98-4.35V276.5l10.12 7.99-1.69 2.13-5.86-4.7v12.06c0 1.07.27 2.22.71 3.2l1.42 3.02-2.3 1.24zm10.73-6.66-10.11-7.98 1.68-2.13 5.86 4.61V277.2c0-1.06-.27-2.22-.71-3.2l-1.42-3 2.4-1.16 1.24 3.02c.62 1.33.97 2.83.97 4.34l.1 17.57z"/></svg>