<svg xmlns="http://www.w3.org/2000/svg" width="200" height="200" class="icon" viewBox="0 0 1024 1024"><path fill="#AFAFB2" d="M699.23 383.7a4.48 4.48 0 0 0 4.48 4.47h17.09a4.48 4.48 0 0 0 4.48-4.48V257.48a4.48 4.48 0 0 0-4.48-4.48H703.7a4.48 4.48 0 0 0-4.48 4.48zm0 101.8a4.48 4.48 0 0 0 4.48 4.47h17.08a4.48 4.48 0 0 0 4.48-4.48v-51.27a4.48 4.48 0 0 0-4.48-4.48h-17.08a4.48 4.48 0 0 0-4.48 4.48z"/><path fill="#D4D4D6" d="M303.71 921.6a40.33 40.33 0 0 0 40.33 40.33h335.2a40.33 40.33 0 0 0 40.33-40.33V93.6a40.33 40.33 0 0 0-40.33-40.33h-335.2a40.33 40.33 0 0 0-40.33 40.33z"/><path d="M305.97 919.4a40.33 40.33 0 0 0 40.33 40.33h330.68a40.33 40.33 0 0 0 40.33-40.33V98.79a40.33 40.33 0 0 0-40.33-40.33H346.3a40.33 40.33 0 0 0-40.33 40.33z"/><path fill="#B6BCE2" d="M350.43 65.02a40.33 40.33 0 0 0-40.33 40.33V907a40.33 40.33 0 0 0 40.33 40.33h322.42a40.33 40.33 0 0 0 40.33-40.33V105.35a40.33 40.33 0 0 0-40.33-40.33z"/><path fill="#CCA7A9" d="M554.21 165.92a8.96 8.96 0 0 0-15.1 4L528.4 211.5a8.96 8.96 0 0 1-4.02 5.42l-26.94 16.43a8.96 8.96 0 0 0-3.2 3.36l-26.94 49.44a8.96 8.96 0 0 0-.59 1.33l-8.41 24.1a8.96 8.96 0 0 1-5.55 5.52l-46.62 16.06a8.96 8.96 0 0 0-5.04 4.34l-22.98 44.21a8.96 8.96 0 0 1-2.93 3.29l-58.7 39.73v452.3a40.33 40.33 0 0 0 40.34 40.32h316.03a40.33 40.33 0 0 0 40.33-40.33V333.4l-64.67-32.22a8.96 8.96 0 0 1-4.03-4.03L606.08 220a8.96 8.96 0 0 0-1.6-2.24z"/><path fill="#EAC0C2" d="M310.1 908.42a40.33 40.33 0 0 0 40.33 40.33h322.42a40.33 40.33 0 0 0 40.33-40.33V364.8l-65.75-32.24a8.96 8.96 0 0 1-4.05-4l-39.02-77.16a8.96 8.96 0 0 0-1.62-2.24l-51.33-52.09a8.96 8.96 0 0 0-15.05 4.02l-10.93 41.8a8.96 8.96 0 0 1-4.06 5.42l-27.43 16.45a8.96 8.96 0 0 0-3.23 3.34l-27.37 49.45a8.96 8.96 0 0 0-.6 1.34l-8.55 24.1a8.96 8.96 0 0 1-5.57 5.49l-47.5 16.1a8.96 8.96 0 0 0-5.04 4.3l-23.37 44.23a8.96 8.96 0 0 1-2.95 3.27l-59.66 39.75z"/><path fill="#93ABCC" d="m713.18 801.49-62.09-16.22a8.96 8.96 0 0 1-6.4-6.4l-33.72-129.48a8.96 8.96 0 0 0-4.11-5.46L500 580.8a8.96 8.96 0 0 0-7.72-.67l-101.7 38.33a8.96 8.96 0 0 0-1.96 1.03l-72.13 50.1v207.43a40.33 40.33 0 0 0 40.33 40.33h316.03a40.33 40.33 0 0 0 40.33-40.33V801.5z"/><path fill="#A4BFE4" d="M713.18 832.89 650 816.65a8.96 8.96 0 0 1-6.43-6.39L609.33 680.8a8.96 8.96 0 0 0-4.16-5.46l-108.7-63.2a8.96 8.96 0 0 0-7.62-.66l-103.5 38.39a8.96 8.96 0 0 0-1.94 1L310.1 701v207.43a40.33 40.33 0 0 0 40.33 40.33h322.42a40.33 40.33 0 0 0 40.33-40.33V832.9z"/><path fill="#F6F7F8" d="M316.2 83.86a44.22 44.22 0 0 0-5.53 21.43V906.4a44.22 44.22 0 0 0 5.54 21.42V83.86zm390.87 844.36a44.01 44.01 0 0 0 5.53-21.43V105.67c0-7.56-1.93-14.92-5.53-21.42v843.97z" opacity=".8"/><path fill="#828282" d="M425.1 58.44h-2.44v-5.16h2.44v5.16zm168.81 0h2.44v-5.16h-2.44v5.16zm-142.7 903.45h2.45v-2.16h-2.44v2.16z"/><path d="M358.29 81.9a13.42 13.42 0 1 0 0 26.84 13.42 13.42 0 0 0 0-26.83z"/><path fill="#324D70" d="M358.35 90.75a4.58 4.58 0 0 0-4.58 4.58 4.57 4.57 0 1 0 4.58-4.58z"/><path fill="#5883A3" d="M356.69 95.03a1.34 1.34 0 1 1 0-2.68 1.34 1.34 0 0 1 0 2.68zm2.75 2.72a.9.9 0 0 1 1.8 0c-.01.49-.42.9-.9.9a.9.9 0 0 1-.9-.9z"/></svg>